<svg width="17" height="16" viewBox="0 0 17 16" fill="none" xmlns="http://www.w3.org/2000/svg">
<path d="M8.8501 5.37875C7.39885 5.37875 6.22885 6.56 6.22885 8C6.22885 9.44 7.4101 10.6213 8.8501 10.6213C10.2901 10.6213 11.4713 9.44 11.4713 8C11.4713 6.56 10.2901 5.37875 8.8501 5.37875ZM16.7251 8C16.7251 6.90875 16.7251 5.84 16.6688 4.74875C16.6126 3.48875 16.3201 2.36375 15.3976 1.4525C14.4751 0.53 13.3613 0.2375 12.1013 0.18125C11.0101 0.125 9.94135 0.125 8.8501 0.125C7.75885 0.125 6.6901 0.125 5.59885 0.18125C4.33885 0.2375 3.21385 0.53 2.3026 1.4525C1.3801 2.375 1.0876 3.48875 1.03135 4.74875C0.975098 5.84 0.975098 6.90875 0.975098 8C0.975098 9.09125 0.975098 10.16 1.03135 11.2513C1.0876 12.5113 1.3801 13.6362 2.3026 14.5475C3.2251 15.47 4.33885 15.7625 5.59885 15.8187C6.6901 15.875 7.75885 15.875 8.8501 15.875C9.94135 15.875 11.0101 15.875 12.1013 15.8187C13.3613 15.7625 14.4863 15.47 15.3976 14.5475C16.3201 13.625 16.6126 12.5113 16.6688 11.2513C16.7363 10.1713 16.7251 9.09125 16.7251 8ZM8.8501 12.0387C6.61135 12.0387 4.81135 10.2388 4.81135 8C4.81135 5.76125 6.61135 3.96125 8.8501 3.96125C11.0888 3.96125 12.8888 5.76125 12.8888 8C12.8888 10.2388 11.0888 12.0387 8.8501 12.0387ZM13.0576 4.7375C12.5401 4.7375 12.1126 4.32125 12.1126 3.7925C12.1126 3.26375 12.5288 2.8475 13.0576 2.8475C13.5863 2.8475 14.0026 3.26375 14.0026 3.7925C14.0054 3.91573 13.9829 4.03823 13.9365 4.1524C13.8901 4.26658 13.8207 4.37 13.7326 4.45625C13.6463 4.54431 13.5429 4.61371 13.4288 4.66016C13.3146 4.7066 13.1921 4.7291 13.0688 4.72625L13.0576 4.7375Z" fill="#7A7A7A"/>
</svg>
