<svg width="19" height="18" viewBox="0 0 19 18" fill="none" xmlns="http://www.w3.org/2000/svg">
<path fill-rule="evenodd" clip-rule="evenodd" d="M14.3501 2.25C14.9468 2.25 15.5191 2.48705 15.9411 2.90901C16.363 3.33097 16.6001 3.90326 16.6001 4.5V13.5C16.6001 14.0967 16.363 14.669 15.9411 15.091C15.5191 15.5129 14.9468 15.75 14.3501 15.75H5.3501C4.75336 15.75 4.18106 15.5129 3.75911 15.091C3.33715 14.669 3.1001 14.0967 3.1001 13.5V4.5C3.1001 3.90326 3.33715 3.33097 3.75911 2.90901C4.18106 2.48705 4.75336 2.25 5.3501 2.25H14.3501ZM6.8501 7.5C6.65119 7.5 6.46042 7.57902 6.31977 7.71967C6.17912 7.86032 6.1001 8.05109 6.1001 8.25V12C6.1001 12.1989 6.17912 12.3897 6.31977 12.5303C6.46042 12.671 6.65119 12.75 6.8501 12.75C7.04901 12.75 7.23978 12.671 7.38043 12.5303C7.52108 12.3897 7.6001 12.1989 7.6001 12V8.25C7.6001 8.05109 7.52108 7.86032 7.38043 7.71967C7.23978 7.57902 7.04901 7.5 6.8501 7.5ZM9.1001 6.75C8.90119 6.75 8.71042 6.82902 8.56977 6.96967C8.42912 7.11032 8.3501 7.30109 8.3501 7.5V12C8.3501 12.1989 8.42912 12.3897 8.56977 12.5303C8.71042 12.671 8.90119 12.75 9.1001 12.75C9.29901 12.75 9.48978 12.671 9.63043 12.5303C9.77108 12.3897 9.8501 12.1989 9.8501 12V9.255C10.0788 8.997 10.4651 8.694 10.8948 8.51025C11.1446 8.40375 11.5203 8.36025 11.7813 8.44275C11.8679 8.46472 11.945 8.5142 12.0011 8.58375C12.0401 8.63625 12.1001 8.75325 12.1001 9V12C12.1001 12.1989 12.1791 12.3897 12.3198 12.5303C12.4604 12.671 12.6512 12.75 12.8501 12.75C13.049 12.75 13.2398 12.671 13.3804 12.5303C13.5211 12.3897 13.6001 12.1989 13.6001 12V9C13.6001 8.4975 13.4726 8.0505 13.2071 7.692C12.9628 7.36692 12.6209 7.12854 12.2313 7.01175C11.5548 6.7995 10.8056 6.91725 10.3053 7.13175C10.1452 7.20063 9.98918 7.27876 9.8381 7.36575C9.80666 7.19294 9.71556 7.03665 9.58069 6.92412C9.44583 6.8116 9.27574 6.74997 9.1001 6.75ZM6.8501 5.25C6.65119 5.25 6.46042 5.32902 6.31977 5.46967C6.17912 5.61032 6.1001 5.80109 6.1001 6C6.1001 6.19891 6.17912 6.38968 6.31977 6.53033C6.46042 6.67098 6.65119 6.75 6.8501 6.75C7.04901 6.75 7.23978 6.67098 7.38043 6.53033C7.52108 6.38968 7.6001 6.19891 7.6001 6C7.6001 5.80109 7.52108 5.61032 7.38043 5.46967C7.23978 5.32902 7.04901 5.25 6.8501 5.25Z" fill="#7A7A7A"/>
</svg>
