<svg width="56" height="57" viewBox="0 0 56 57" fill="none" xmlns="http://www.w3.org/2000/svg">
<rect y="0.919922" width="56" height="56" rx="28" fill="#90CAF9" fill-opacity="0.1"/>
<path d="M22.1665 38.2532H33.8332" stroke="#1565C0" stroke-width="2.33333" stroke-linecap="round" stroke-linejoin="round"/>
<path d="M25.6665 38.2533C32.0832 35.3367 26.5998 30.7867 29.1665 26.5867" stroke="#1565C0" stroke-width="2.33333" stroke-linecap="round" stroke-linejoin="round"/>
<path d="M25.0832 25.8866C26.3665 26.8199 27.1832 28.4533 27.7665 30.2033C25.4332 30.6699 23.6832 30.6699 22.1665 29.8533C20.7665 29.1533 19.4832 27.6366 18.6665 24.9533C21.9332 24.3699 23.7998 24.9533 25.0832 25.8866Z" stroke="#1565C0" stroke-width="2.33333" stroke-linecap="round" stroke-linejoin="round"/>
<path d="M30.4502 21.92C29.5608 23.3102 29.1133 24.9372 29.1669 26.5867C31.3836 26.47 33.0169 25.8867 34.1836 24.9533C35.3502 23.7867 36.0502 22.27 36.1669 19.5867C33.0169 19.7033 31.5002 20.7533 30.4502 21.92Z" stroke="#1565C0" stroke-width="2.33333" stroke-linecap="round" stroke-linejoin="round"/>
</svg>
