<svg width="40" height="40" viewBox="0 0 40 40" fill="none" xmlns="http://www.w3.org/2000/svg">
<rect width="40" height="40" rx="20" fill="#5D9CEC" fill-opacity="0.1"/>
<path d="M23.3333 27.5V25.8333C23.3333 24.9493 22.9821 24.1014 22.357 23.4763C21.7319 22.8512 20.884 22.5 20 22.5H15C14.1159 22.5 13.2681 22.8512 12.643 23.4763C12.0178 24.1014 11.6667 24.9493 11.6667 25.8333V27.5" stroke="#5D9CEC" stroke-width="1.66667" stroke-linecap="round" stroke-linejoin="round"/>
<path d="M17.5 19.1667C19.3409 19.1667 20.8333 17.6743 20.8333 15.8333C20.8333 13.9924 19.3409 12.5 17.5 12.5C15.659 12.5 14.1667 13.9924 14.1667 15.8333C14.1667 17.6743 15.659 19.1667 17.5 19.1667Z" stroke="#5D9CEC" stroke-width="1.66667" stroke-linecap="round" stroke-linejoin="round"/>
<path d="M23.3333 19.1667L25 20.8333L28.3333 17.5" stroke="#5D9CEC" stroke-width="1.66667" stroke-linecap="round" stroke-linejoin="round"/>
</svg>
