<svg width="49" height="49" viewBox="0 0 49 49" fill="none" xmlns="http://www.w3.org/2000/svg">
<rect x="0.810303" y="0.118164" width="48" height="48" rx="24" fill="#5D9CEC" fill-opacity="0.2"/>
<path d="M30.8103 16.1182H18.8103C17.7057 16.1182 16.8103 17.0136 16.8103 18.1182V30.1182C16.8103 31.2227 17.7057 32.1182 18.8103 32.1182H30.8103C31.9149 32.1182 32.8103 31.2227 32.8103 30.1182V18.1182C32.8103 17.0136 31.9149 16.1182 30.8103 16.1182Z" stroke="#5D9CEC" stroke-width="2" stroke-linecap="round" stroke-linejoin="round"/>
<path d="M26.8103 21.1182H22.8103C22.258 21.1182 21.8103 21.5659 21.8103 22.1182V26.1182C21.8103 26.6704 22.258 27.1182 22.8103 27.1182H26.8103C27.3626 27.1182 27.8103 26.6704 27.8103 26.1182V22.1182C27.8103 21.5659 27.3626 21.1182 26.8103 21.1182Z" stroke="#5D9CEC" stroke-width="2" stroke-linecap="round" stroke-linejoin="round"/>
<path d="M27.8103 14.1182V16.1182" stroke="#5D9CEC" stroke-width="2" stroke-linecap="round" stroke-linejoin="round"/>
<path d="M27.8103 32.1182V34.1182" stroke="#5D9CEC" stroke-width="2" stroke-linecap="round" stroke-linejoin="round"/>
<path d="M14.8103 27.1182H16.8103" stroke="#5D9CEC" stroke-width="2" stroke-linecap="round" stroke-linejoin="round"/>
<path d="M14.8103 21.1182H16.8103" stroke="#5D9CEC" stroke-width="2" stroke-linecap="round" stroke-linejoin="round"/>
<path d="M32.8103 27.1182H34.8103" stroke="#5D9CEC" stroke-width="2" stroke-linecap="round" stroke-linejoin="round"/>
<path d="M32.8103 21.1182H34.8103" stroke="#5D9CEC" stroke-width="2" stroke-linecap="round" stroke-linejoin="round"/>
<path d="M21.8103 14.1182V16.1182" stroke="#5D9CEC" stroke-width="2" stroke-linecap="round" stroke-linejoin="round"/>
<path d="M21.8103 32.1182V34.1182" stroke="#5D9CEC" stroke-width="2" stroke-linecap="round" stroke-linejoin="round"/>
</svg>
