<svg width="48" height="49" viewBox="0 0 48 49" fill="none" xmlns="http://www.w3.org/2000/svg">
<rect y="0.118164" width="48" height="48" rx="24" fill="#5D9CEC" fill-opacity="0.2"/>
<path d="M33 24.1181C33.552 24.1181 34.005 23.6691 33.95 23.1201C33.7195 20.8243 32.7021 18.6788 31.0703 17.0474C29.4386 15.416 27.2929 14.3991 24.997 14.1691C24.447 14.1141 23.999 14.5671 23.999 15.1191V23.1191C23.999 23.3843 24.1044 23.6387 24.2919 23.8262C24.4795 24.0137 24.7338 24.1191 24.999 24.1191L33 24.1181Z" stroke="#5D9CEC" stroke-width="2" stroke-linecap="round" stroke-linejoin="round"/>
<path d="M33.21 28.0082C32.5738 29.5127 31.5788 30.8385 30.3119 31.8695C29.0449 32.9006 27.5447 33.6057 25.9424 33.923C24.3401 34.2404 22.6844 34.1604 21.1201 33.69C19.5558 33.2197 18.1306 32.3733 16.969 31.2249C15.8074 30.0765 14.9448 28.661 14.4566 27.1022C13.9684 25.5434 13.8695 23.8887 14.1686 22.2829C14.4676 20.677 15.1555 19.1689 16.172 17.8903C17.1886 16.6117 18.5029 15.6016 20 14.9482" stroke="#5D9CEC" stroke-width="2" stroke-linecap="round" stroke-linejoin="round"/>
</svg>
