<svg width="48" height="48" viewBox="0 0 48 48" fill="none" xmlns="http://www.w3.org/2000/svg">
<rect width="48" height="48" rx="24" fill="#5D9CEC" fill-opacity="0.2"/>
<path d="M32 15H27C26.4477 15 26 15.4477 26 16V21C26 21.5523 26.4477 22 27 22H32C32.5523 22 33 21.5523 33 21V16C33 15.4477 32.5523 15 32 15Z" stroke="#5D9CEC" stroke-width="2" stroke-linecap="round" stroke-linejoin="round"/>
<path d="M22 33V20C22 19.7348 21.8946 19.4804 21.7071 19.2929C21.5196 19.1054 21.2652 19 21 19H16C15.7348 19 15.4804 19.1054 15.2929 19.2929C15.1054 19.4804 15 19.7348 15 20V32C15 32.2652 15.1054 32.5196 15.2929 32.7071C15.4804 32.8946 15.7348 33 16 33H28C28.2652 33 28.5196 32.8946 28.7071 32.7071C28.8946 32.5196 29 32.2652 29 32V27C29 26.7348 28.8946 26.4804 28.7071 26.2929C28.5196 26.1054 28.2652 26 28 26H15" stroke="#5D9CEC" stroke-width="2" stroke-linecap="round" stroke-linejoin="round"/>
</svg>
