<svg width="49" height="49" viewBox="0 0 49 49" fill="none" xmlns="http://www.w3.org/2000/svg">
<rect x="0.189941" y="0.390625" width="48" height="48" rx="24" fill="#33C3F0" fill-opacity="0.1"/>
<path d="M20.1899 34.3906C20.7422 34.3906 21.1899 33.9429 21.1899 33.3906C21.1899 32.8383 20.7422 32.3906 20.1899 32.3906C19.6377 32.3906 19.1899 32.8383 19.1899 33.3906C19.1899 33.9429 19.6377 34.3906 20.1899 34.3906Z" stroke="#33C3F0" stroke-width="2" stroke-linecap="round" stroke-linejoin="round"/>
<path d="M31.1899 34.3906C31.7422 34.3906 32.1899 33.9429 32.1899 33.3906C32.1899 32.8383 31.7422 32.3906 31.1899 32.3906C30.6377 32.3906 30.1899 32.8383 30.1899 33.3906C30.1899 33.9429 30.6377 34.3906 31.1899 34.3906Z" stroke="#33C3F0" stroke-width="2" stroke-linecap="round" stroke-linejoin="round"/>
<path d="M14.2399 14.4404H16.2399L18.8999 26.8604C18.9975 27.3153 19.2506 27.7219 19.6157 28.0103C19.9807 28.2987 20.4349 28.4508 20.8999 28.4404H30.6799C31.1351 28.4397 31.5764 28.2837 31.931 27.9983C32.2855 27.7128 32.5321 27.315 32.6299 26.8704L34.2799 19.4404H17.3099" stroke="#33C3F0" stroke-width="2" stroke-linecap="round" stroke-linejoin="round"/>
</svg>
