<svg width="49" height="49" viewBox="0 0 49 49" fill="none" xmlns="http://www.w3.org/2000/svg">
<rect x="0.810242" y="0.118164" width="48" height="48" rx="24" fill="#22C55E" fill-opacity="0.1"/>
<path d="M15.8102 23.1182L33.8102 18.1182V30.1182L15.8102 26.1182V23.1182Z" stroke="#22C55E" stroke-width="2" stroke-linecap="round" stroke-linejoin="round"/>
<path d="M24.4102 28.9184C24.3052 29.2992 24.1261 29.6556 23.8833 29.9672C23.6405 30.2789 23.3387 30.5397 22.9951 30.7347C22.6516 30.9297 22.2729 31.0551 21.8809 31.1038C21.4888 31.1524 21.091 31.1234 20.7102 31.0184C20.3294 30.9133 19.973 30.7343 19.6613 30.4915C19.3497 30.2487 19.0889 29.9469 18.8939 29.6033C18.6989 29.2597 18.5735 28.8811 18.5248 28.489C18.4761 28.097 18.5052 27.6992 18.6102 27.3184" stroke="#22C55E" stroke-width="2" stroke-linecap="round" stroke-linejoin="round"/>
</svg>
