<svg width="64" height="64" viewBox="0 0 64 64" fill="none" xmlns="http://www.w3.org/2000/svg">
<rect width="64" height="64" rx="32" fill="#5D9CEC" fill-opacity="0.1"/>
<path d="M37.3332 44V41.3333C37.3332 39.9188 36.7713 38.5623 35.7711 37.5621C34.7709 36.5619 33.4143 36 31.9998 36H23.9998C22.5853 36 21.2288 36.5619 20.2286 37.5621C19.2284 38.5623 18.6665 39.9188 18.6665 41.3333V44" stroke="#5D9CEC" stroke-width="2.66667" stroke-linecap="round" stroke-linejoin="round"/>
<path d="M27.9998 30.6667C30.9454 30.6667 33.3332 28.2789 33.3332 25.3333C33.3332 22.3878 30.9454 20 27.9998 20C25.0543 20 22.6665 22.3878 22.6665 25.3333C22.6665 28.2789 25.0543 30.6667 27.9998 30.6667Z" stroke="#5D9CEC" stroke-width="2.66667" stroke-linecap="round" stroke-linejoin="round"/>
<path d="M45.3335 43.9995V41.3329C45.3326 40.1512 44.9393 39.0032 44.2153 38.0693C43.4913 37.1353 42.4777 36.4683 41.3335 36.1729" stroke="#5D9CEC" stroke-width="2.66667" stroke-linecap="round" stroke-linejoin="round"/>
<path d="M37.3335 20.1729C38.4807 20.4666 39.4975 21.1338 40.2237 22.0693C40.9498 23.0047 41.344 24.1553 41.344 25.3395C41.344 26.5237 40.9498 27.6743 40.2237 28.6098C39.4975 29.5452 38.4807 30.2125 37.3335 30.5062" stroke="#5D9CEC" stroke-width="2.66667" stroke-linecap="round" stroke-linejoin="round"/>
</svg>
