<svg width="40" height="40" viewBox="0 0 40 40" fill="none" xmlns="http://www.w3.org/2000/svg">
<rect width="40" height="40" rx="20" fill="#5D9CEC" fill-opacity="0.1"/>
<path d="M26.6667 20.8331C26.6667 24.9997 23.75 27.0831 20.2834 28.2914C20.1018 28.3529 19.9047 28.35 19.725 28.2831C16.25 27.0831 13.3334 24.9997 13.3334 20.8331V14.9997C13.3334 14.7787 13.4212 14.5667 13.5775 14.4105C13.7337 14.2542 13.9457 14.1664 14.1667 14.1664C15.8334 14.1664 17.9167 13.1664 19.3667 11.8997C19.5433 11.7489 19.7678 11.666 20 11.666C20.2322 11.666 20.4568 11.7489 20.6334 11.8997C22.0917 13.1747 24.1667 14.1664 25.8334 14.1664C26.0544 14.1664 26.2663 14.2542 26.4226 14.4105C26.5789 14.5667 26.6667 14.7787 26.6667 14.9997V20.8331Z" stroke="#5D9CEC" stroke-width="1.66667" stroke-linecap="round" stroke-linejoin="round"/>
<path d="M17.5 19.9997L19.1667 21.6663L22.5 18.333" stroke="#5D9CEC" stroke-width="1.66667" stroke-linecap="round" stroke-linejoin="round"/>
</svg>
