<svg width="49" height="49" viewBox="0 0 49 49" fill="none" xmlns="http://www.w3.org/2000/svg">
<rect x="0.810242" y="0.118164" width="48" height="48" rx="24" fill="#5D9CEC" fill-opacity="0.1"/>
<path d="M28.8102 33.1182V31.1182C28.8102 30.0573 28.3888 29.0399 27.6387 28.2897C26.8885 27.5396 25.8711 27.1182 24.8102 27.1182H18.8102C17.7494 27.1182 16.732 27.5396 15.9818 28.2897C15.2317 29.0399 14.8102 30.0573 14.8102 31.1182V33.1182" stroke="#5D9CEC" stroke-width="2" stroke-linecap="round" stroke-linejoin="round"/>
<path d="M21.8102 23.1182C24.0194 23.1182 25.8102 21.3273 25.8102 19.1182C25.8102 16.909 24.0194 15.1182 21.8102 15.1182C19.6011 15.1182 17.8102 16.909 17.8102 19.1182C17.8102 21.3273 19.6011 23.1182 21.8102 23.1182Z" stroke="#5D9CEC" stroke-width="2" stroke-linecap="round" stroke-linejoin="round"/>
<path d="M34.8102 33.118V31.118C34.8096 30.2318 34.5146 29.3708 33.9716 28.6704C33.4286 27.9699 32.6684 27.4696 31.8102 27.248" stroke="#5D9CEC" stroke-width="2" stroke-linecap="round" stroke-linejoin="round"/>
<path d="M28.8102 15.248C29.6707 15.4683 30.4333 15.9687 30.9779 16.6704C31.5225 17.372 31.8181 18.2349 31.8181 19.123C31.8181 20.0112 31.5225 20.8741 30.9779 21.5757C30.4333 22.2773 29.6707 22.7777 28.8102 22.998" stroke="#5D9CEC" stroke-width="2" stroke-linecap="round" stroke-linejoin="round"/>
</svg>
