<svg width="25" height="25" viewBox="0 0 25 25" fill="none" xmlns="http://www.w3.org/2000/svg">
<path d="M20.5 16.1182V7.11816C20.5 6.58773 20.2893 6.07902 19.9142 5.70395C19.5392 5.32888 19.0305 5.11816 18.5 5.11816H6.50002C5.96959 5.11816 5.46088 5.32888 5.08581 5.70395C4.71073 6.07902 4.50002 6.58773 4.50002 7.11816V16.1182M20.5 16.1182H4.50002M20.5 16.1182L21.78 18.6682C21.8571 18.8211 21.8936 18.9914 21.886 19.1625C21.8784 19.3337 21.827 19.5 21.7366 19.6456C21.6463 19.7911 21.5201 19.911 21.3701 19.9938C21.2201 20.0765 21.0513 20.1194 20.88 20.1182H4.12002C3.94871 20.1194 3.77997 20.0765 3.62997 19.9938C3.47997 19.911 3.35374 19.7911 3.2634 19.6456C3.17305 19.5 3.12162 19.3337 3.11402 19.1625C3.10643 18.9914 3.14293 18.8211 3.22002 18.6682L4.50002 16.1182" stroke="#5D9CEC" stroke-width="2" stroke-linecap="round" stroke-linejoin="round"/>
</svg>
