<svg width="49" height="49" viewBox="0 0 49 49" fill="none" xmlns="http://www.w3.org/2000/svg">
<rect x="0.390015" y="0.390625" width="48" height="48" rx="24" fill="#33C3F0" fill-opacity="0.1"/>
<path d="M25.39 16.3906H28.39C28.9204 16.3906 29.4292 16.6013 29.8042 16.9764C30.1793 17.3515 30.39 17.8602 30.39 18.3906V32.3906" stroke="#33C3F0" stroke-width="2" stroke-linecap="round" stroke-linejoin="round"/>
<path d="M14.39 32.3906H17.39" stroke="#33C3F0" stroke-width="2" stroke-linecap="round" stroke-linejoin="round"/>
<path d="M25.39 32.3906H34.39" stroke="#33C3F0" stroke-width="2" stroke-linecap="round" stroke-linejoin="round"/>
<path d="M22.39 24.3906V24.4006" stroke="#33C3F0" stroke-width="2" stroke-linecap="round" stroke-linejoin="round"/>
<path d="M25.39 16.9528V33.1098C25.39 33.2617 25.3553 33.4116 25.2887 33.5481C25.2221 33.6846 25.1252 33.8042 25.0055 33.8977C24.8858 33.9912 24.7464 34.0562 24.5978 34.0877C24.4492 34.1193 24.2954 34.1166 24.148 34.0798L17.39 32.3908V17.9528C17.3901 17.5068 17.5392 17.0737 17.8137 16.7222C18.0882 16.3706 18.4723 16.121 18.905 16.0128L22.905 15.0128C23.1998 14.9391 23.5074 14.9336 23.8046 14.9966C24.1019 15.0596 24.3808 15.1894 24.6204 15.3763C24.8599 15.5632 25.0537 15.8023 25.187 16.0752C25.3204 16.3482 25.3898 16.649 25.39 16.9528Z" stroke="#33C3F0" stroke-width="2" stroke-linecap="round" stroke-linejoin="round"/>
</svg>
