<svg width="49" height="49" viewBox="0 0 49 49" fill="none" xmlns="http://www.w3.org/2000/svg">
<rect x="0.799988" y="0.390625" width="48" height="48" rx="24" fill="#33C3F0" fill-opacity="0.1"/>
<path d="M32.8 18.3906H16.8C15.6954 18.3906 14.8 19.2861 14.8 20.3906V28.3906C14.8 29.4952 15.6954 30.3906 16.8 30.3906H32.8C33.9046 30.3906 34.8 29.4952 34.8 28.3906V20.3906C34.8 19.2861 33.9046 18.3906 32.8 18.3906Z" stroke="#33C3F0" stroke-width="2" stroke-linecap="round" stroke-linejoin="round"/>
<path d="M24.8 26.3906C25.9046 26.3906 26.8 25.4952 26.8 24.3906C26.8 23.2861 25.9046 22.3906 24.8 22.3906C23.6954 22.3906 22.8 23.2861 22.8 24.3906C22.8 25.4952 23.6954 26.3906 24.8 26.3906Z" stroke="#33C3F0" stroke-width="2" stroke-linecap="round" stroke-linejoin="round"/>
<path d="M18.8 24.3906H18.81M30.8 24.3906H30.81" stroke="#33C3F0" stroke-width="2" stroke-linecap="round" stroke-linejoin="round"/>
</svg>
