<svg width="49" height="49" viewBox="0 0 49 49" fill="none" xmlns="http://www.w3.org/2000/svg">
<rect x="0.390015" y="0.390625" width="48" height="48" rx="24" fill="#33C3F0" fill-opacity="0.1"/>
<path d="M34.39 24.3906H14.39" stroke="#33C3F0" stroke-width="2" stroke-linecap="round" stroke-linejoin="round"/>
<path d="M17.84 17.5006L14.39 24.3906V30.3906C14.39 30.9211 14.6007 31.4298 14.9758 31.8048C15.3509 32.1799 15.8596 32.3906 16.39 32.3906H32.39C32.9204 32.3906 33.4292 32.1799 33.8042 31.8048C34.1793 31.4298 34.39 30.9211 34.39 30.3906V24.3906L30.94 17.5006C30.7744 17.1674 30.5192 16.887 30.203 16.6909C29.8868 16.4948 29.5221 16.3908 29.15 16.3906H19.63C19.2579 16.3908 18.8933 16.4948 18.5771 16.6909C18.2608 16.887 18.0056 17.1674 17.84 17.5006Z" stroke="#33C3F0" stroke-width="2" stroke-linecap="round" stroke-linejoin="round"/>
<path d="M18.39 28.3906H18.4" stroke="#33C3F0" stroke-width="2" stroke-linecap="round" stroke-linejoin="round"/>
<path d="M22.39 28.3906H22.4" stroke="#33C3F0" stroke-width="2" stroke-linecap="round" stroke-linejoin="round"/>
</svg>
