<svg width="36" height="25" viewBox="0 0 36 25" fill="none" xmlns="http://www.w3.org/2000/svg">
<path d="M31.9552 14.2363C33.4452 12.7763 34.9552 11.0263 34.9552 8.73633C34.9552 7.27764 34.3757 5.87869 33.3443 4.84724C32.3128 3.81579 30.9139 3.23633 29.4552 3.23633C27.6952 3.23633 26.4552 3.73633 24.9552 5.23633C23.4552 3.73633 22.2152 3.23633 20.4552 3.23633C18.9965 3.23633 17.5976 3.81579 16.5661 4.84724C15.5347 5.87869 14.9552 7.27764 14.9552 8.73633C14.9552 11.0363 16.4552 12.7863 17.9552 14.2363L24.9552 21.2363L31.9552 14.2363Z" stroke="#5D9CEC" stroke-width="2" stroke-linecap="round" stroke-linejoin="round"/>
<path d="M24.9552 5.23633L21.9952 8.19633C21.792 8.39803 21.6307 8.63795 21.5207 8.90226C21.4107 9.16656 21.354 9.45003 21.354 9.73633C21.354 10.0226 21.4107 10.3061 21.5207 10.5704C21.6307 10.8347 21.792 11.0746 21.9952 11.2763C22.8152 12.0963 24.1252 12.1263 24.9952 11.3463L27.0652 9.44633C27.584 8.97552 28.2596 8.71472 28.9602 8.71472C29.6608 8.71472 30.3363 8.97552 30.8552 9.44633L33.8152 12.1063" stroke="#5D9CEC" stroke-width="2" stroke-linecap="round" stroke-linejoin="round"/>
<path d="M30.9552 15.2363L28.9552 13.2363" stroke="#5D9CEC" stroke-width="2" stroke-linecap="round" stroke-linejoin="round"/>
<path d="M27.9552 18.2363L25.9552 16.2363" stroke="#5D9CEC" stroke-width="2" stroke-linecap="round" stroke-linejoin="round"/>
</svg>
