<svg width="65" height="64" viewBox="0 0 65 64" fill="none" xmlns="http://www.w3.org/2000/svg">
<rect x="0.189697" width="64" height="64" rx="32" fill="#5D9CEC" fill-opacity="0.1"/>
<path d="M37.5231 44V41.3333C37.5231 39.9188 36.9612 38.5623 35.961 37.5621C34.9608 36.5619 33.6043 36 32.1898 36H24.1898C22.7753 36 21.4187 36.5619 20.4185 37.5621C19.4183 38.5623 18.8564 39.9188 18.8564 41.3333V44" stroke="#5D9CEC" stroke-width="2.66667" stroke-linecap="round" stroke-linejoin="round"/>
<path d="M28.1898 30.6667C31.1353 30.6667 33.5231 28.2789 33.5231 25.3333C33.5231 22.3878 31.1353 20 28.1898 20C25.2443 20 22.8564 22.3878 22.8564 25.3333C22.8564 28.2789 25.2443 30.6667 28.1898 30.6667Z" stroke="#5D9CEC" stroke-width="2.66667" stroke-linecap="round" stroke-linejoin="round"/>
<path d="M41.5229 26.667V34.667" stroke="#5D9CEC" stroke-width="2.66667" stroke-linecap="round" stroke-linejoin="round"/>
<path d="M45.5229 30.667H37.5229" stroke="#5D9CEC" stroke-width="2.66667" stroke-linecap="round" stroke-linejoin="round"/>
</svg>
