<svg width="65" height="64" viewBox="0 0 65 64" fill="none" xmlns="http://www.w3.org/2000/svg">
<rect x="0.189697" width="64" height="64" rx="32" fill="#5D9CEC" fill-opacity="0.1"/>
<path d="M20.1897 30.6667L44.1897 24V40L20.1897 34.6667V30.6667Z" stroke="#5D9CEC" stroke-width="2.66667" stroke-linecap="round" stroke-linejoin="round"/>
<path d="M31.6563 38.3999C31.5163 38.9077 31.2775 39.3829 30.9538 39.7985C30.6301 40.214 30.2277 40.5617 29.7696 40.8217C29.3115 41.0817 28.8066 41.2489 28.2839 41.3138C27.7612 41.3787 27.2308 41.34 26.723 41.1999C26.2152 41.0599 25.74 40.8211 25.3245 40.4974C24.909 40.1737 24.5613 39.7713 24.3013 39.3132C24.0413 38.8551 23.874 38.3502 23.8091 37.8275C23.7442 37.3048 23.7829 36.7744 23.923 36.2666" stroke="#5D9CEC" stroke-width="2.66667" stroke-linecap="round" stroke-linejoin="round"/>
</svg>
