<svg width="56" height="57" viewBox="0 0 56 57" fill="none" xmlns="http://www.w3.org/2000/svg">
<rect y="0.390137" width="56" height="56" rx="28" fill="#22C55E" fill-opacity="0.1"/>
<path d="M20 37.7233C22.9455 37.7233 25.3333 35.3355 25.3333 32.39C25.3333 29.4445 22.9455 27.0566 20 27.0566C17.0545 27.0566 14.6667 29.4445 14.6667 32.39C14.6667 35.3355 17.0545 37.7233 20 37.7233Z" stroke="#22C55E" stroke-width="2.66667" stroke-linecap="round" stroke-linejoin="round"/>
<path d="M36 37.7233C38.9455 37.7233 41.3333 35.3355 41.3333 32.39C41.3333 29.4445 38.9455 27.0566 36 27.0566C33.0545 27.0566 30.6667 29.4445 30.6667 32.39C30.6667 35.3355 33.0545 37.7233 36 37.7233Z" stroke="#22C55E" stroke-width="2.66667" stroke-linecap="round" stroke-linejoin="round"/>
<path d="M30.6667 32.3903C30.6667 31.6831 30.3857 31.0048 29.8856 30.5047C29.3855 30.0046 28.7073 29.7236 28 29.7236C27.2928 29.7236 26.6145 30.0046 26.1144 30.5047C25.6143 31.0048 25.3333 31.6831 25.3333 32.3903" stroke="#22C55E" stroke-width="2.66667" stroke-linecap="round" stroke-linejoin="round"/>
<path d="M15.3333 29.7233L18.6667 21.7233C19.6 19.99 20.5333 19.0566 22.6667 19.0566" stroke="#22C55E" stroke-width="2.66667" stroke-linecap="round" stroke-linejoin="round"/>
<path d="M40.6667 29.7233L37.3333 21.7233C36.4 19.99 35.3333 19.0566 33.3333 19.0566" stroke="#22C55E" stroke-width="2.66667" stroke-linecap="round" stroke-linejoin="round"/>
</svg>
