<svg width="64" height="64" viewBox="0 0 64 64" fill="none" xmlns="http://www.w3.org/2000/svg">
<rect width="64" height="64" rx="32" fill="#5D9CEC" fill-opacity="0.1"/>
<path d="M30.6665 38.6663L33.3332 41.333C33.5958 41.5957 33.9076 41.804 34.2508 41.9461C34.5939 42.0883 34.9617 42.1614 35.3332 42.1614C35.7046 42.1614 36.0724 42.0883 36.4156 41.9461C36.7587 41.804 37.0705 41.5957 37.3332 41.333C37.5958 41.0704 37.8042 40.7586 37.9463 40.4154C38.0884 40.0722 38.1616 39.7044 38.1616 39.333C38.1616 38.9616 38.0884 38.5938 37.9463 38.2506C37.8042 37.9075 37.5958 37.5957 37.3332 37.333" stroke="#5D9CEC" stroke-width="2.66667" stroke-linecap="round" stroke-linejoin="round"/>
<path d="M34.667 34.6664L38.0003 37.9997C38.5307 38.5301 39.2502 38.8281 40.0003 38.8281C40.7504 38.8281 41.4699 38.5301 42.0003 37.9997C42.5307 37.4693 42.8287 36.7498 42.8287 35.9997C42.8287 35.2495 42.5307 34.5301 42.0003 33.9997L36.827 28.8264C36.077 28.0773 35.0603 27.6565 34.0003 27.6565C32.9403 27.6565 31.9236 28.0773 31.1736 28.8264L30.0003 29.9997C29.4699 30.5301 28.7504 30.8281 28.0003 30.8281C27.2502 30.8281 26.5307 30.5301 26.0003 29.9997C25.4699 29.4693 25.1719 28.7498 25.1719 27.9997C25.1719 27.2495 25.4699 26.5301 26.0003 25.9997L29.747 22.253C30.9633 21.0399 32.5495 20.2671 34.2545 20.057C35.9595 19.8469 37.6859 20.2115 39.1603 21.093L39.787 21.4664C40.3547 21.809 41.0297 21.9279 41.6803 21.7997L44.0003 21.333" stroke="#5D9CEC" stroke-width="2.66667" stroke-linecap="round" stroke-linejoin="round"/>
<path d="M43.9998 20L45.3332 34.6667H42.6665" stroke="#5D9CEC" stroke-width="2.66667" stroke-linecap="round" stroke-linejoin="round"/>
<path d="M19.9998 20L18.6665 34.6667L27.3332 43.3333C27.8636 43.8638 28.583 44.1618 29.3332 44.1618C30.0833 44.1618 30.8027 43.8638 31.3332 43.3333C31.8636 42.8029 32.1616 42.0835 32.1616 41.3333C32.1616 40.5832 31.8636 39.8638 31.3332 39.3333" stroke="#5D9CEC" stroke-width="2.66667" stroke-linecap="round" stroke-linejoin="round"/>
<path d="M20 21.333H30.6667" stroke="#5D9CEC" stroke-width="2.66667" stroke-linecap="round" stroke-linejoin="round"/>
</svg>
