<svg width="49" height="49" viewBox="0 0 49 49" fill="none" xmlns="http://www.w3.org/2000/svg">
<rect x="0.190002" y="0.390625" width="48" height="48" rx="24" fill="#33C3F0" fill-opacity="0.1"/>
<path d="M31.19 17.3906L17.19 31.3906" stroke="#33C3F0" stroke-width="2" stroke-linecap="round" stroke-linejoin="round"/>
<path d="M18.69 21.3906C20.0707 21.3906 21.19 20.2713 21.19 18.8906C21.19 17.5099 20.0707 16.3906 18.69 16.3906C17.3093 16.3906 16.19 17.5099 16.19 18.8906C16.19 20.2713 17.3093 21.3906 18.69 21.3906Z" stroke="#33C3F0" stroke-width="2" stroke-linecap="round" stroke-linejoin="round"/>
<path d="M29.69 32.3906C31.0707 32.3906 32.19 31.2713 32.19 29.8906C32.19 28.5099 31.0707 27.3906 29.69 27.3906C28.3093 27.3906 27.19 28.5099 27.19 29.8906C27.19 31.2713 28.3093 32.3906 29.69 32.3906Z" stroke="#33C3F0" stroke-width="2" stroke-linecap="round" stroke-linejoin="round"/>
</svg>
