<svg width="17" height="25" viewBox="0 0 17 25" fill="none" xmlns="http://www.w3.org/2000/svg">
<path d="M9.42188 6.67993C9.65625 6.67993 9.85547 6.76196 10.0195 6.92603C10.1836 7.09009 10.2656 7.28931 10.2656 7.52368V9.21118C10.2656 9.43774 10.1797 9.63306 10.0078 9.79712C9.84375 9.96118 9.64844 10.0432 9.42188 10.0432H7.73438C7.50781 10.0432 7.30859 9.96118 7.13672 9.79712C6.97266 9.63306 6.89062 9.43774 6.89062 9.21118V7.52368C6.89062 7.28931 6.97266 7.09009 7.13672 6.92603C7.30078 6.76196 7.5 6.67993 7.73438 6.67993H9.42188ZM5.21484 10.887C5.44141 10.887 5.63672 10.9729 5.80078 11.1448C5.96484 11.3088 6.04688 11.5042 6.04688 11.7307V13.4182C6.04688 13.6448 5.96484 13.844 5.80078 14.0159C5.63672 14.1799 5.44141 14.262 5.21484 14.262H3.52734C3.29297 14.262 3.09375 14.1799 2.92969 14.0159C2.76562 13.8518 2.68359 13.6526 2.68359 13.4182V11.7307C2.68359 11.4963 2.76562 11.2971 2.92969 11.1331C3.09375 10.969 3.29297 10.887 3.52734 10.887H5.21484ZM6.89062 15.9495C6.89062 15.7151 6.97266 15.5159 7.13672 15.3518C7.30078 15.1877 7.5 15.1057 7.73438 15.1057H9.42188C9.65625 15.1057 9.85547 15.1877 10.0195 15.3518C10.1836 15.5159 10.2656 15.7151 10.2656 15.9495V17.6252C10.2656 17.8596 10.1836 18.0588 10.0195 18.2229C9.85547 18.387 9.65625 18.469 9.42188 18.469H7.73438C7.5 18.469 7.30078 18.387 7.13672 18.2229C6.97266 18.0588 6.89062 17.8596 6.89062 17.6252V15.9495ZM5.21484 6.67993C5.44141 6.67993 5.63672 6.76587 5.80078 6.93774C5.96484 7.10181 6.04688 7.29712 6.04688 7.52368V9.21118C6.04688 9.43774 5.96484 9.63306 5.80078 9.79712C5.63672 9.96118 5.44141 10.0432 5.21484 10.0432H3.52734C3.30078 10.0432 3.10156 9.96118 2.92969 9.79712C2.76562 9.63306 2.68359 9.43774 2.68359 9.21118V7.52368C2.68359 7.28931 2.76562 7.09009 2.92969 6.92603C3.09375 6.76196 3.29297 6.67993 3.52734 6.67993H5.21484ZM5.21484 15.1057C5.44141 15.1057 5.63672 15.1917 5.80078 15.3635C5.96484 15.5276 6.04688 15.7229 6.04688 15.9495V17.6252C6.04688 17.8518 5.96484 18.051 5.80078 18.2229C5.63672 18.387 5.44141 18.469 5.21484 18.469H3.52734C3.29297 18.469 3.09375 18.387 2.92969 18.2229C2.76562 18.0588 2.68359 17.8596 2.68359 17.6252V15.9495C2.68359 15.7151 2.76562 15.5159 2.92969 15.3518C3.09375 15.1877 3.29297 15.1057 3.52734 15.1057H5.21484ZM11.1094 11.7307C11.1094 11.4963 11.1914 11.2971 11.3555 11.1331C11.5195 10.969 11.7188 10.887 11.9531 10.887H13.6289C13.8633 10.887 14.0625 10.969 14.2266 11.1331C14.3906 11.2971 14.4727 11.4963 14.4727 11.7307V13.4182C14.4727 13.6526 14.3906 13.8518 14.2266 14.0159C14.0625 14.1799 13.8633 14.262 13.6289 14.262H11.9531C11.7188 14.262 11.5195 14.1799 11.3555 14.0159C11.1914 13.8518 11.1094 13.6526 11.1094 13.4182V11.7307ZM11.1094 7.52368C11.1094 7.28931 11.1914 7.09009 11.3555 6.92603C11.5195 6.76196 11.7188 6.67993 11.9531 6.67993H13.6289C13.8633 6.67993 14.0625 6.76196 14.2266 6.92603C14.3906 7.09009 14.4727 7.28931 14.4727 7.52368V9.21118C14.4727 9.43774 14.3867 9.63306 14.2148 9.79712C14.0508 9.96118 13.8555 10.0432 13.6289 10.0432H11.9531C11.7266 10.0432 11.5273 9.96118 11.3555 9.79712C11.1914 9.63306 11.1094 9.43774 11.1094 9.21118V7.52368ZM6.89062 11.7307C6.89062 11.4963 6.97266 11.2971 7.13672 11.1331C7.30078 10.969 7.5 10.887 7.73438 10.887H9.42188C9.65625 10.887 9.85547 10.969 10.0195 11.1331C10.1836 11.2971 10.2656 11.4963 10.2656 11.7307V13.4182C10.2656 13.6526 10.1836 13.8518 10.0195 14.0159C9.85547 14.1799 9.65625 14.262 9.42188 14.262H7.73438C7.5 14.262 7.30078 14.1799 7.13672 14.0159C6.97266 13.8518 6.89062 13.6526 6.89062 13.4182V11.7307ZM13.6289 15.1057C13.8633 15.1057 14.0625 15.1877 14.2266 15.3518C14.3906 15.5159 14.4727 15.7151 14.4727 15.9495V17.6252C14.4727 17.8596 14.3906 18.0588 14.2266 18.2229C14.0625 18.387 13.8633 18.469 13.6289 18.469H11.9531C11.7188 18.469 11.5195 18.387 11.3555 18.2229C11.1914 18.0588 11.1094 17.8596 11.1094 17.6252V15.9495C11.1094 15.7151 11.1914 15.5159 11.3555 15.3518C11.5195 15.1877 11.7188 15.1057 11.9531 15.1057H13.6289ZM14.0508 0.7854C14.4023 0.7854 14.7305 0.851807 15.0352 0.984619C15.3398 1.11743 15.6055 1.29712 15.832 1.52368C16.0664 1.75024 16.25 2.01587 16.3828 2.32056C16.5156 2.62524 16.582 2.95337 16.582 3.30493V21.844C16.582 22.1956 16.5156 22.5237 16.3828 22.8284C16.25 23.1331 16.0664 23.3987 15.832 23.6252C15.6055 23.8518 15.3398 24.0315 15.0352 24.1643C14.7305 24.2971 14.4023 24.3635 14.0508 24.3635H3.10547C2.75391 24.3635 2.42578 24.2971 2.12109 24.1643C1.81641 24.0315 1.54688 23.8518 1.3125 23.6252C1.08594 23.3987 0.90625 23.1331 0.773438 22.8284C0.640625 22.5237 0.574219 22.1956 0.574219 21.844V3.30493C0.574219 2.95337 0.640625 2.62524 0.773438 2.32056C0.90625 2.01587 1.08594 1.75024 1.3125 1.52368C1.54688 1.29712 1.81641 1.11743 2.12109 0.984619C2.42578 0.851807 2.75391 0.7854 3.10547 0.7854H14.0508ZM1.41797 4.14868V21.0002H15.7383V4.14868H1.41797Z" fill="#0F1729"/>
</svg>
