<svg width="49" height="49" viewBox="0 0 49 49" fill="none" xmlns="http://www.w3.org/2000/svg">
<rect x="0.810303" y="0.118164" width="48" height="48" rx="24" fill="#A855F7" fill-opacity="0.1"/>
<path d="M24.8103 14.1182V34.1182" stroke="#A855F7" stroke-width="2" stroke-linecap="round" stroke-linejoin="round"/>
<path d="M29.8103 17.1182H22.3103C21.382 17.1182 20.4918 17.4869 19.8354 18.1433C19.1791 18.7997 18.8103 19.6899 18.8103 20.6182C18.8103 21.5464 19.1791 22.4367 19.8354 23.093C20.4918 23.7494 21.382 24.1182 22.3103 24.1182H27.3103C28.2386 24.1182 29.1288 24.4869 29.7852 25.1433C30.4416 25.7997 30.8103 26.6899 30.8103 27.6182C30.8103 28.5464 30.4416 29.4367 29.7852 30.093C29.1288 30.7494 28.2386 31.1182 27.3103 31.1182H18.8103" stroke="#A855F7" stroke-width="2" stroke-linecap="round" stroke-linejoin="round"/>
</svg>
