<svg width="30" height="25" viewBox="0 0 30 25" fill="none" xmlns="http://www.w3.org/2000/svg">
<path d="M16.8103 8.23633C18.4672 8.23633 19.8103 6.89318 19.8103 5.23633C19.8103 3.57947 18.4672 2.23633 16.8103 2.23633C15.1534 2.23633 13.8103 3.57947 13.8103 5.23633C13.8103 6.89318 15.1534 8.23633 16.8103 8.23633Z" stroke="#5D9CEC" stroke-width="2" stroke-linecap="round" stroke-linejoin="round"/>
<path d="M4.8103 15.2363C6.46716 15.2363 7.8103 13.8932 7.8103 12.2363C7.8103 10.5795 6.46716 9.23633 4.8103 9.23633C3.15345 9.23633 1.8103 10.5795 1.8103 12.2363C1.8103 13.8932 3.15345 15.2363 4.8103 15.2363Z" stroke="#5D9CEC" stroke-width="2" stroke-linecap="round" stroke-linejoin="round"/>
<path d="M16.8103 22.2363C18.4672 22.2363 19.8103 20.8932 19.8103 19.2363C19.8103 17.5795 18.4672 16.2363 16.8103 16.2363C15.1534 16.2363 13.8103 17.5795 13.8103 19.2363C13.8103 20.8932 15.1534 22.2363 16.8103 22.2363Z" stroke="#5D9CEC" stroke-width="2" stroke-linecap="round" stroke-linejoin="round"/>
<path d="M7.40027 13.7461L14.2303 17.7261" stroke="#5D9CEC" stroke-width="2" stroke-linecap="round" stroke-linejoin="round"/>
<path d="M14.2203 6.74609L7.40027 10.7261" stroke="#5D9CEC" stroke-width="2" stroke-linecap="round" stroke-linejoin="round"/>
</svg>
