<svg width="49" height="49" viewBox="0 0 49 49" fill="none" xmlns="http://www.w3.org/2000/svg">
<rect x="0.810303" y="0.118164" width="48" height="48" rx="24" fill="#5D9CEC" fill-opacity="0.2"/>
<path d="M21.8103 15.1182H16.8103C16.258 15.1182 15.8103 15.5659 15.8103 16.1182V21.1182C15.8103 21.6704 16.258 22.1182 16.8103 22.1182H21.8103C22.3626 22.1182 22.8103 21.6704 22.8103 21.1182V16.1182C22.8103 15.5659 22.3626 15.1182 21.8103 15.1182Z" stroke="#5D9CEC" stroke-width="2" stroke-linecap="round" stroke-linejoin="round"/>
<path d="M32.8103 15.1182H27.8103C27.258 15.1182 26.8103 15.5659 26.8103 16.1182V21.1182C26.8103 21.6704 27.258 22.1182 27.8103 22.1182H32.8103C33.3626 22.1182 33.8103 21.6704 33.8103 21.1182V16.1182C33.8103 15.5659 33.3626 15.1182 32.8103 15.1182Z" stroke="#5D9CEC" stroke-width="2" stroke-linecap="round" stroke-linejoin="round"/>
<path d="M32.8103 26.1182H27.8103C27.258 26.1182 26.8103 26.5659 26.8103 27.1182V32.1182C26.8103 32.6704 27.258 33.1182 27.8103 33.1182H32.8103C33.3626 33.1182 33.8103 32.6704 33.8103 32.1182V27.1182C33.8103 26.5659 33.3626 26.1182 32.8103 26.1182Z" stroke="#5D9CEC" stroke-width="2" stroke-linecap="round" stroke-linejoin="round"/>
<path d="M21.8103 26.1182H16.8103C16.258 26.1182 15.8103 26.5659 15.8103 27.1182V32.1182C15.8103 32.6704 16.258 33.1182 16.8103 33.1182H21.8103C22.3626 33.1182 22.8103 32.6704 22.8103 32.1182V27.1182C22.8103 26.5659 22.3626 26.1182 21.8103 26.1182Z" stroke="#5D9CEC" stroke-width="2" stroke-linecap="round" stroke-linejoin="round"/>
</svg>
