<svg width="49" height="49" viewBox="0 0 49 49" fill="none" xmlns="http://www.w3.org/2000/svg">
<rect x="0.590088" y="0.390625" width="48" height="48" rx="24" fill="#33C3F0" fill-opacity="0.1"/>
<path d="M25.4201 14.571C25.1595 14.4521 24.8764 14.3906 24.5901 14.3906C24.3037 14.3906 24.0206 14.4521 23.7601 14.571L15.1901 18.471C15.0126 18.5492 14.8617 18.6774 14.7558 18.8398C14.6499 19.0023 14.5935 19.192 14.5935 19.386C14.5935 19.5799 14.6499 19.7697 14.7558 19.9321C14.8617 20.0946 15.0126 20.2227 15.1901 20.301L23.7701 24.211C24.0306 24.3298 24.3137 24.3913 24.6001 24.3913C24.8864 24.3913 25.1695 24.3298 25.4301 24.211L34.0101 20.311C34.1875 20.2327 34.3384 20.1046 34.4443 19.9421C34.5502 19.7797 34.6066 19.5899 34.6066 19.396C34.6066 19.202 34.5502 19.0123 34.4443 18.8498C34.3384 18.6874 34.1875 18.5592 34.0101 18.481L25.4201 14.571Z" stroke="#33C3F0" stroke-width="2" stroke-linecap="round" stroke-linejoin="round"/>
<path d="M34.5901 30.041L25.4201 34.201C25.1595 34.3199 24.8765 34.3814 24.5901 34.3814C24.3037 34.3814 24.0207 34.3199 23.7601 34.201L14.5901 30.041" stroke="#33C3F0" stroke-width="2" stroke-linecap="round" stroke-linejoin="round"/>
<path d="M34.5901 25.041L25.4201 29.201C25.1595 29.3199 24.8765 29.3814 24.5901 29.3814C24.3037 29.3814 24.0207 29.3199 23.7601 29.201L14.5901 25.041" stroke="#33C3F0" stroke-width="2" stroke-linecap="round" stroke-linejoin="round"/>
</svg>
