<svg width="49" height="49" viewBox="0 0 49 49" fill="none" xmlns="http://www.w3.org/2000/svg">
<rect x="0.800049" y="0.390625" width="48" height="48" rx="24" fill="#33C3F0" fill-opacity="0.1"/>
<path d="M23.8 24.3906H25.8C26.3305 24.3906 26.8392 24.1799 27.2143 23.8048C27.5893 23.4298 27.8 22.9211 27.8 22.3906C27.8 21.8602 27.5893 21.3515 27.2143 20.9764C26.8392 20.6013 26.3305 20.3906 25.8 20.3906H22.8C22.2 20.3906 21.7 20.5906 21.4 20.9906L15.8 26.3906" stroke="#33C3F0" stroke-width="2" stroke-linecap="round" stroke-linejoin="round"/>
<path d="M19.8 30.3909L21.4 28.9909C21.7 28.5909 22.2 28.3909 22.8 28.3909H26.8C27.9 28.3909 28.9 27.9909 29.6 27.1909L34.2 22.7909C34.5859 22.4262 34.8112 21.9232 34.8262 21.3925C34.8412 20.8617 34.6447 20.3468 34.28 19.9609C33.9154 19.575 33.4123 19.3498 32.8816 19.3348C32.3509 19.3198 31.8359 19.5162 31.45 19.8809L27.25 23.7809" stroke="#33C3F0" stroke-width="2" stroke-linecap="round" stroke-linejoin="round"/>
<path d="M14.8 25.3906L20.8 31.3906" stroke="#33C3F0" stroke-width="2" stroke-linecap="round" stroke-linejoin="round"/>
</svg>
