<svg width="57" height="57" viewBox="0 0 57 57" fill="none" xmlns="http://www.w3.org/2000/svg">
<rect x="0.810303" y="0.508301" width="56" height="56" rx="28" fill="#EF4444" fill-opacity="0.1"/>
<path d="M39.477 29.8416C39.477 36.5082 34.8103 39.8416 29.2636 41.7749C28.9732 41.8733 28.6577 41.8686 28.3703 41.7616C22.8103 39.8416 18.1436 36.5082 18.1436 29.8416V20.5082C18.1436 20.1546 18.2841 19.8155 18.5342 19.5654C18.7842 19.3154 19.1233 19.1749 19.477 19.1749C22.1436 19.1749 25.477 17.5749 27.797 15.5482C28.0794 15.3069 28.4388 15.1743 28.8103 15.1743C29.1818 15.1743 29.5412 15.3069 29.8236 15.5482C32.157 17.5882 35.477 19.1749 38.1436 19.1749C38.4973 19.1749 38.8364 19.3154 39.0864 19.5654C39.3365 19.8155 39.477 20.1546 39.477 20.5082V29.8416Z" stroke="#EF4444" stroke-width="2.66667" stroke-linecap="round" stroke-linejoin="round"/>
<path d="M28.8103 23.1748V28.5081" stroke="#EF4444" stroke-width="2.66667" stroke-linecap="round" stroke-linejoin="round"/>
<path d="M28.8103 33.8418H28.8236" stroke="#EF4444" stroke-width="2.66667" stroke-linecap="round" stroke-linejoin="round"/>
</svg>
