<svg width="23" height="23" viewBox="0 0 23 23" fill="none" xmlns="http://www.w3.org/2000/svg">
<path d="M9.0772 14.7361C8.98792 14.39 8.80754 14.0742 8.55482 13.8215C8.3021 13.5688 7.98627 13.3884 7.6402 13.2991L1.5052 11.7171C1.40053 11.6874 1.30841 11.6243 1.24281 11.5375C1.17721 11.4507 1.14172 11.3449 1.14172 11.2361C1.14172 11.1273 1.17721 11.0215 1.24281 10.9346C1.30841 10.8478 1.40053 10.7848 1.5052 10.7551L7.6402 9.17209C7.98615 9.0829 8.30189 8.90266 8.5546 8.65013C8.80731 8.39759 8.98776 8.08198 9.0772 7.73609L10.6592 1.60109C10.6886 1.49601 10.7516 1.40343 10.8385 1.33748C10.9255 1.27154 11.0316 1.23584 11.1407 1.23584C11.2498 1.23584 11.3559 1.27154 11.4429 1.33748C11.5298 1.40343 11.5928 1.49601 11.6222 1.60109L13.2032 7.73609C13.2925 8.08216 13.4729 8.39799 13.7256 8.65071C13.9783 8.90343 14.2941 9.08381 14.6402 9.17309L20.7752 10.7541C20.8807 10.7832 20.9737 10.8461 21.04 10.9332C21.1063 11.0202 21.1422 11.1266 21.1422 11.2361C21.1422 11.3455 21.1063 11.4519 21.04 11.539C20.9737 11.6261 20.8807 11.689 20.7752 11.7181L14.6402 13.2991C14.2941 13.3884 13.9783 13.5688 13.7256 13.8215C13.4729 14.0742 13.2925 14.39 13.2032 14.7361L11.6212 20.8711C11.5918 20.9762 11.5288 21.0687 11.4419 21.1347C11.3549 21.2006 11.2488 21.2363 11.1397 21.2363C11.0306 21.2363 10.9245 21.2006 10.8375 21.1347C10.7506 21.0687 10.6876 20.9762 10.6582 20.8711L9.0772 14.7361Z" stroke="#5D9CEC" stroke-width="2" stroke-linecap="round" stroke-linejoin="round"/>
</svg>
