<svg width="49" height="49" viewBox="0 0 49 49" fill="none" xmlns="http://www.w3.org/2000/svg">
<rect x="0.590027" y="0.390625" width="48" height="48" rx="24" fill="#33C3F0" fill-opacity="0.1"/>
<path d="M34.0101 23.313C34.1891 23.234 34.341 23.1043 34.447 22.9398C34.553 22.7753 34.6084 22.5834 34.6064 22.3877C34.6044 22.1921 34.545 22.0013 34.4356 21.8391C34.3262 21.6768 34.1717 21.5502 33.9911 21.475L25.4201 17.571C25.1595 17.4521 24.8765 17.3906 24.5901 17.3906C24.3037 17.3906 24.0206 17.4521 23.7601 17.571L15.1901 21.471C15.012 21.549 14.8606 21.6771 14.7542 21.8398C14.6479 22.0025 14.5912 22.1926 14.5912 22.387C14.5912 22.5813 14.6479 22.7715 14.7542 22.9342C14.8606 23.0968 15.012 23.225 15.1901 23.303L23.7601 27.211C24.0206 27.3298 24.3037 27.3913 24.5901 27.3913C24.8765 27.3913 25.1595 27.3298 25.4201 27.211L34.0101 23.313Z" stroke="#33C3F0" stroke-width="2" stroke-linecap="round" stroke-linejoin="round"/>
<path d="M34.59 22.3906V28.3906" stroke="#33C3F0" stroke-width="2" stroke-linecap="round" stroke-linejoin="round"/>
<path d="M18.59 24.8906V28.3906C18.59 29.1863 19.2222 29.9493 20.3474 30.5119C21.4726 31.0746 22.9987 31.3906 24.59 31.3906C26.1813 31.3906 27.7075 31.0746 28.8327 30.5119C29.9579 29.9493 30.59 29.1863 30.59 28.3906V24.8906" stroke="#33C3F0" stroke-width="2" stroke-linecap="round" stroke-linejoin="round"/>
</svg>
