<svg width="49" height="49" viewBox="0 0 49 49" fill="none" xmlns="http://www.w3.org/2000/svg">
<rect x="0.810303" y="0.118164" width="48" height="48" rx="24" fill="#FF7A50" fill-opacity="0.1"/>
<path d="M27.8103 26.1182C28.0103 25.1182 28.5103 24.4182 29.3103 23.6182C30.3103 22.7182 30.8103 21.4182 30.8103 20.1182C30.8103 18.5269 30.1782 17.0007 29.0529 15.8755C27.9277 14.7503 26.4016 14.1182 24.8103 14.1182C23.219 14.1182 21.6929 14.7503 20.5677 15.8755C19.4424 17.0007 18.8103 18.5269 18.8103 20.1182C18.8103 21.1182 19.0103 22.3182 20.3103 23.6182C21.0103 24.3182 21.6103 25.1182 21.8103 26.1182" stroke="#FF7A50" stroke-width="2" stroke-linecap="round" stroke-linejoin="round"/>
<path d="M21.8103 30.1182H27.8103" stroke="#FF7A50" stroke-width="2" stroke-linecap="round" stroke-linejoin="round"/>
<path d="M22.8103 34.1182H26.8103" stroke="#FF7A50" stroke-width="2" stroke-linecap="round" stroke-linejoin="round"/>
</svg>
