<svg width="57" height="57" viewBox="0 0 57 57" fill="none" xmlns="http://www.w3.org/2000/svg">
<rect x="0.810303" y="0.508301" width="56" height="56" rx="28" fill="#FF7A50" fill-opacity="0.1"/>
<path d="M41.7836 36.5083L31.117 17.8416C30.8844 17.4312 30.5471 17.0899 30.1395 16.8524C29.732 16.6149 29.2687 16.4897 28.797 16.4897C28.3252 16.4897 27.862 16.6149 27.4544 16.8524C27.0468 17.0899 26.7095 17.4312 26.477 17.8416L15.8103 36.5083C15.5752 36.9154 15.4519 37.3775 15.453 37.8476C15.454 38.3178 15.5793 38.7793 15.8162 39.1854C16.0531 39.5915 16.3932 39.9277 16.8019 40.16C17.2106 40.3924 17.6735 40.5125 18.1436 40.5083H39.477C39.9448 40.5078 40.4043 40.3842 40.8093 40.15C41.2143 39.9157 41.5506 39.5791 41.7843 39.1738C42.018 38.7685 42.141 38.3088 42.1409 37.8409C42.1408 37.3731 42.0176 36.9135 41.7836 36.5083Z" stroke="#FF7A50" stroke-width="2.66667" stroke-linecap="round" stroke-linejoin="round"/>
<path d="M28.8103 24.5083V29.8416" stroke="#FF7A50" stroke-width="2.66667" stroke-linecap="round" stroke-linejoin="round"/>
<path d="M28.8103 35.1748H28.8236" stroke="#FF7A50" stroke-width="2.66667" stroke-linecap="round" stroke-linejoin="round"/>
</svg>
